<?xml version="1.0" standalone="no"?>
<!DOCTYPE svg PUBLIC "-//W3C//DTD SVG 20010904//EN"
 "http://www.w3.org/TR/2001/REC-SVG-20010904/DTD/svg10.dtd">
<svg version="1.0" xmlns="http://www.w3.org/2000/svg"
 width="623.000000pt" height="200.000000pt" viewBox="0 0 623.000000 200.000000"
 preserveAspectRatio="xMidYMid meet">

<g transform="translate(0.000000,200.000000) scale(0.100000,-0.100000)"
fill="#000000" stroke="none">
<path d="M5530 1085 l0 -445 30 0 30 0 1 193 c0 120 5 204 12 224 22 60 72
117 128 148 47 25 64 29 129 29 56 -1 85 -6 115 -22 53 -28 100 -74 128 -125
20 -39 22 -57 25 -244 l3 -203 31 0 30 0 -4 208 c-4 227 -8 246 -70 324 -68
87 -193 137 -301 123 -66 -9 -107 -26 -167 -70 -26 -19 -50 -35 -54 -35 -3 0
-6 77 -6 170 l0 170 -30 0 -30 0 0 -445z"/>
<path d="M2707 1290 c-64 -16 -112 -47 -164 -104 -76 -83 -83 -113 -83 -348
l0 -198 24 0 24 0 4 193 c3 187 4 194 31 249 48 97 131 151 237 152 87 1 148
-23 200 -80 69 -75 74 -94 78 -316 l4 -198 29 0 29 0 0 175 c0 95 -5 198 -11
226 -22 100 -94 186 -194 230 -52 23 -154 32 -208 19z"/>
<path d="M3493 1290 c-87 -18 -177 -91 -225 -182 -18 -36 -22 -59 -23 -138 0
-112 21 -168 92 -236 84 -82 109 -89 351 -92 l212 -3 0 30 0 31 -197 0 c-170
0 -204 3 -238 19 -80 36 -144 112 -160 189 l-7 32 303 0 302 0 -6 61 c-10 113
-89 223 -192 270 -49 22 -154 31 -212 19z m193 -79 c55 -25 110 -86 134 -149
11 -29 20 -55 20 -57 0 -3 -122 -5 -270 -5 l-270 0 6 28 c41 168 219 254 380
183z"/>
<path d="M4050 1294 c0 -3 54 -77 120 -164 66 -88 120 -162 120 -165 0 -2 -51
-71 -113 -152 -143 -187 -135 -173 -95 -173 31 0 40 9 136 135 57 74 107 135
112 135 4 0 53 -61 107 -134 95 -132 99 -135 136 -135 l38 -1 -121 158 c-66
87 -120 163 -120 169 0 6 51 78 113 159 143 189 135 174 95 174 -31 0 -40 -9
-138 -140 -58 -77 -108 -140 -112 -140 -5 0 -20 17 -35 38 -16 21 -63 84 -107
140 -67 88 -82 102 -107 102 -16 0 -29 -2 -29 -6z"/>
<path d="M4957 1290 c-178 -45 -288 -225 -243 -398 27 -108 90 -183 189 -226
56 -25 65 -26 262 -26 l205 0 0 170 c0 175 -10 250 -40 310 -26 51 -108 126
-162 150 -55 24 -156 33 -211 20z m187 -74 c50 -21 105 -74 132 -128 20 -40
26 -70 31 -152 3 -56 3 -132 -1 -170 l-8 -67 -171 3 c-192 3 -215 9 -283 76
-100 97 -106 260 -14 364 39 45 87 74 145 89 39 10 128 2 169 -15z"/>
</g>
</svg>
